<svg width="1024" height="235" viewBox="0 0 1024 235" fill="none" xmlns="http://www.w3.org/2000/svg">
<path d="M146.46 70.8141H104.57V57.8662H206.82V70.8141H165.12V181.442H146.46V70.8141ZM265.269 183.346C257.144 183.346 251.051 183.029 246.989 182.394C242.927 181.887 238.865 180.681 234.803 178.777C230.614 176.873 227.567 173.826 225.663 169.637C223.759 165.321 222.807 159.545 222.807 152.31V120.321C222.807 114.608 223.505 109.594 224.902 105.278C226.298 100.962 228.139 97.5984 230.424 95.1866C232.328 93.0286 235.184 91.3784 238.992 90.2359C242.927 88.9665 246.926 88.1414 250.988 87.7606C255.558 87.5067 260.318 87.3798 265.269 87.3798C271.869 87.3798 276.82 87.5702 280.121 87.951C283.548 88.2049 287.166 88.8396 290.974 89.8551C294.909 90.9976 297.956 92.7113 300.114 94.9962C302.272 97.2811 304.112 100.582 305.636 104.898C307.032 109.34 307.73 114.481 307.73 120.321V152.31C307.73 163.1 305.255 170.97 300.304 175.92C298.273 177.952 295.353 179.538 291.545 180.681C287.737 181.823 283.802 182.585 279.74 182.966C274.916 183.22 270.092 183.346 265.269 183.346ZM265.269 172.112C270.6 172.112 274.472 171.985 276.884 171.731C279.295 171.478 281.644 170.779 283.929 169.637C286.214 168.621 287.8 166.971 288.689 164.686C289.705 162.274 290.212 158.974 290.212 154.785V117.465C290.212 111.752 289.514 107.627 288.118 105.088C286.721 102.422 284.31 100.708 280.882 99.9468C277.582 99.0583 272.377 98.614 265.269 98.614C258.16 98.614 252.892 99.0583 249.465 99.9468C246.164 100.708 243.816 102.422 242.419 105.088C241.023 107.627 240.325 111.752 240.325 117.465V154.785C240.325 158.974 240.769 162.274 241.658 164.686C242.673 166.971 244.323 168.621 246.608 169.637C248.893 170.779 251.242 171.478 253.654 171.731C256.065 171.985 259.937 172.112 265.269 172.112ZM366.445 183.346C354.639 183.346 346.325 181.252 341.501 177.063C336.804 172.747 334.456 166.019 334.456 156.879V89.2839H351.593V155.927C351.593 158.339 351.783 160.307 352.164 161.83C352.672 163.226 353.497 164.686 354.639 166.21C356.924 169.51 362.51 171.16 371.395 171.16C380.789 171.16 387.39 170.272 391.198 168.494C394.879 166.717 396.72 163.48 396.72 158.784V89.2839H413.857V181.442H396.72V170.208C395.07 178.967 384.978 183.346 366.445 183.346ZM443.607 89.2839H459.792V104.326C459.792 101.407 461.061 98.6774 463.6 96.1386C466.139 93.4729 469.376 91.3784 473.311 89.8551C477.246 88.2049 481.118 87.3798 484.926 87.3798H493.304V102.041H483.784C475.659 102.041 469.757 103.12 466.075 105.278C462.521 107.309 460.744 111.054 460.744 116.513V181.442H443.607V89.2839ZM510.362 89.2839H527.499V100.518C529.276 91.7592 539.368 87.3798 557.774 87.3798C569.58 87.3798 577.831 89.5378 582.528 93.8537C587.351 98.0427 589.763 104.707 589.763 113.847V181.442H572.626V114.799C572.626 112.387 572.436 110.419 572.055 108.896C571.674 107.373 570.913 105.85 569.77 104.326C567.231 101.153 561.582 99.566 552.824 99.566C546.096 99.566 540.891 100.074 537.21 101.089C533.656 101.978 531.117 103.501 529.594 105.659C528.197 107.817 527.499 110.864 527.499 114.799V181.442H510.362V89.2839ZM617.99 160.878H640.078V181.442H617.99V160.878ZM668.231 89.2839H685.368V100.518C687.146 91.7592 697.491 87.3798 716.405 87.3798C731.765 87.3798 741.349 91.5688 745.157 99.9468C746.3 95.8848 749.727 92.7747 755.439 90.6167C761.279 88.4588 768.387 87.3798 776.765 87.3798C788.19 87.3798 796.251 89.5378 800.947 93.8537C805.644 98.0427 807.992 104.707 807.992 113.847V181.442H790.856V114.989C790.856 112.577 790.665 110.61 790.284 109.087C789.904 107.563 789.142 106.04 787.999 104.517C785.461 101.343 779.812 99.7564 771.053 99.7564C764.325 99.7564 759.311 100.201 756.011 101.089C752.71 101.978 750.425 103.501 749.156 105.659C748.013 107.817 747.442 110.927 747.442 114.989V181.442H730.305V114.989C730.305 112.577 730.115 110.61 729.734 109.087C729.353 107.563 728.591 106.04 727.449 104.517C724.91 101.343 719.325 99.7564 710.693 99.7564C703.711 99.7564 698.443 100.201 694.889 101.089C691.335 101.978 688.859 103.501 687.463 105.659C686.067 107.69 685.368 110.8 685.368 114.989V181.442H668.231V89.2839ZM876.473 183.346C848.292 183.346 834.202 173.953 834.202 155.166V118.797C834.202 107.627 837.376 99.6295 843.723 94.8058C850.197 89.8551 860.606 87.3798 874.95 87.3798C888.532 87.3798 898.307 89.7282 904.273 94.4249C910.366 99.1217 913.413 107.246 913.413 118.797V139.171H851.529V153.071C851.529 159.418 853.751 163.988 858.194 166.781C862.637 169.573 869.491 170.97 878.758 170.97C887.517 170.97 897.863 169.447 909.795 166.4V179.538C898.116 182.077 887.009 183.346 876.473 183.346ZM896.276 127.937V113.466C896.276 107.881 894.562 104.072 891.135 102.041C887.834 99.8834 882.122 98.8044 873.998 98.8044C866.128 98.8044 860.415 99.8834 856.861 102.041C853.307 104.072 851.529 107.881 851.529 113.466V127.937H896.276Z" fill="white"/>
</svg>
