<svg width="1024" height="235" viewBox="0 0 1024 235" fill="none" xmlns="http://www.w3.org/2000/svg">
<path d="M146.46 67.3717H104.57V54.4238H206.82V67.3717H165.12V178H146.46V67.3717ZM265.269 179.904C257.144 179.904 251.051 179.587 246.989 178.952C242.927 178.444 238.865 177.238 234.803 175.334C230.614 173.43 227.567 170.384 225.663 166.195C223.759 161.879 222.807 156.103 222.807 148.867V116.878C222.807 111.166 223.505 106.152 224.902 101.836C226.298 97.52 228.139 94.1561 230.424 91.7442C232.328 89.5862 235.184 87.936 238.992 86.7935C242.927 85.5241 246.926 84.699 250.988 84.3182C255.558 84.0643 260.318 83.9374 265.269 83.9374C271.869 83.9374 276.82 84.1278 280.121 84.5086C283.548 84.7625 287.166 85.3972 290.974 86.4127C294.909 87.5552 297.956 89.2689 300.114 91.5538C302.272 93.8387 304.112 97.1392 305.636 101.455C307.032 105.898 307.73 111.039 307.73 116.878V148.867C307.73 159.657 305.255 167.527 300.304 172.478C298.273 174.509 295.353 176.096 291.545 177.238C287.737 178.381 283.802 179.142 279.74 179.523C274.916 179.777 270.092 179.904 265.269 179.904ZM265.269 168.67C270.6 168.67 274.472 168.543 276.884 168.289C279.295 168.035 281.644 167.337 283.929 166.195C286.214 165.179 287.8 163.529 288.689 161.244C289.705 158.832 290.212 155.532 290.212 151.343V114.022C290.212 108.31 289.514 104.184 288.118 101.646C286.721 98.9798 284.31 97.2661 280.882 96.5045C277.582 95.6159 272.377 95.1716 265.269 95.1716C258.16 95.1716 252.892 95.6159 249.465 96.5045C246.164 97.2661 243.816 98.9798 242.419 101.646C241.023 104.184 240.325 108.31 240.325 114.022V151.343C240.325 155.532 240.769 158.832 241.658 161.244C242.673 163.529 244.323 165.179 246.608 166.195C248.893 167.337 251.242 168.035 253.654 168.289C256.065 168.543 259.937 168.67 265.269 168.67ZM366.445 179.904C354.639 179.904 346.325 177.81 341.501 173.621C336.804 169.305 334.456 162.577 334.456 153.437V85.8415H351.593V152.485C351.593 154.897 351.783 156.864 352.164 158.388C352.672 159.784 353.497 161.244 354.639 162.767C356.924 166.068 362.51 167.718 371.395 167.718C380.789 167.718 387.39 166.829 391.198 165.052C394.879 163.275 396.72 160.038 396.72 155.341V85.8415H413.857V178H396.72V166.766C395.07 175.525 384.978 179.904 366.445 179.904ZM443.607 85.8415H459.792V100.884C459.792 97.9643 461.061 95.2351 463.6 92.6963C466.139 90.0305 469.376 87.936 473.311 86.4127C477.246 84.7625 481.118 83.9374 484.926 83.9374H493.304V98.599H483.784C475.659 98.599 469.757 99.678 466.075 101.836C462.521 103.867 460.744 107.612 460.744 113.07V178H443.607V85.8415ZM510.362 85.8415H527.499V97.0757C529.276 88.3168 539.368 83.9374 557.774 83.9374C569.58 83.9374 577.831 86.0954 582.528 90.4113C587.351 94.6004 589.763 101.265 589.763 110.404V178H572.626V111.356C572.626 108.945 572.436 106.977 572.055 105.454C571.674 103.93 570.913 102.407 569.77 100.884C567.231 97.7104 561.582 96.1236 552.824 96.1236C546.096 96.1236 540.891 96.6314 537.21 97.6469C533.656 98.5355 531.117 100.059 529.594 102.217C528.197 104.375 527.499 107.421 527.499 111.356V178H510.362V85.8415ZM617.99 157.436H640.078V178H617.99V157.436ZM668.231 85.8415H685.368V97.0757C687.146 88.3168 697.491 83.9374 716.405 83.9374C731.765 83.9374 741.349 88.1264 745.157 96.5045C746.3 92.4424 749.727 89.3323 755.439 87.1744C761.279 85.0164 768.387 83.9374 776.765 83.9374C788.19 83.9374 796.251 86.0954 800.947 90.4113C805.644 94.6004 807.992 101.265 807.992 110.404V178H790.856V111.547C790.856 109.135 790.665 107.167 790.284 105.644C789.904 104.121 789.142 102.598 787.999 101.074C785.461 97.9008 779.812 96.314 771.053 96.314C764.325 96.314 759.311 96.7583 756.011 97.6469C752.71 98.5355 750.425 100.059 749.156 102.217C748.013 104.375 747.442 107.485 747.442 111.547V178H730.305V111.547C730.305 109.135 730.115 107.167 729.734 105.644C729.353 104.121 728.591 102.598 727.449 101.074C724.91 97.9008 719.325 96.314 710.693 96.314C703.711 96.314 698.443 96.7583 694.889 97.6469C691.335 98.5355 688.859 100.059 687.463 102.217C686.067 104.248 685.368 107.358 685.368 111.547V178H668.231V85.8415ZM876.473 179.904C848.292 179.904 834.202 170.511 834.202 151.723V115.355C834.202 104.184 837.376 96.1871 843.723 91.3634C850.197 86.4127 860.606 83.9374 874.95 83.9374C888.532 83.9374 898.307 86.2858 904.273 90.9826C910.366 95.6793 913.413 103.804 913.413 115.355V135.729H851.529V149.629C851.529 155.976 853.751 160.546 858.194 163.338C862.637 166.131 869.491 167.527 878.758 167.527C887.517 167.527 897.863 166.004 909.795 162.958V176.096C898.116 178.635 887.009 179.904 876.473 179.904ZM896.276 124.495V110.024C896.276 104.438 894.562 100.63 891.135 98.599C887.834 96.441 882.122 95.362 873.998 95.362C866.128 95.362 860.415 96.441 856.861 98.599C853.307 100.63 851.529 104.438 851.529 110.024V124.495H896.276Z" fill="black"/>
</svg>
